<svg xmlns="http://www.w3.org/2000/svg" viewBox="0 0 111.49 307.19"><title>资源 1</title><g id="图层_2" data-name="图层 2"><g id="图层_1-2" data-name="图层 1"><circle cx="56.14" cy="24.26" r="24.26"/><path d="M93.49,53.29H18a18,18,0,0,0-18,18v83.89a11.5,11.5,0,0,0,11.5,11.5A7.53,7.53,0,0,0,19,159.15V106.1h4.44V295.3a11.9,11.9,0,0,0,23.79,0V187.61h17V295.3a11.89,11.89,0,0,0,11.89,11.89h0A11.9,11.9,0,0,0,88,295.3V106.1h4.44v53.05a7.53,7.53,0,0,0,7.53,7.53,11.5,11.5,0,0,0,11.5-11.5V71.29A18,18,0,0,0,93.49,53.29Z"/></g></g></svg>